<svg width="19" height="25" viewBox="0 0 19 25" fill="none" xmlns="http://www.w3.org/2000/svg">
<path d="M8.41152 24.4956C1.31689 14.2105 0 13.1549 0 9.375C0 4.19731 4.19731 0 9.375 0C14.5527 0 18.75 4.19731 18.75 9.375C18.75 13.1549 17.4331 14.2105 10.3385 24.4956C9.8729 25.1682 8.87705 25.1681 8.41152 24.4956ZM9.375 13.2812C11.5324 13.2812 13.2812 11.5324 13.2812 9.375C13.2812 7.21763 11.5324 5.46875 9.375 5.46875C7.21763 5.46875 5.46875 7.21763 5.46875 9.375C5.46875 11.5324 7.21763 13.2812 9.375 13.2812Z" fill="url(#paint0_linear_575_34)"/>
<defs>
<linearGradient id="paint0_linear_575_34" x1="9.375" y1="0" x2="9.375" y2="25" gradientUnits="userSpaceOnUse">
<stop stop-color="#7B27DD"/>
<stop offset="1" stop-color="#3606B2"/>
</linearGradient>
</defs>
</svg>
