<svg width="22" height="25" viewBox="0 0 22 25" fill="none" xmlns="http://www.w3.org/2000/svg">
<path d="M19.5312 10.9375H18.3594V7.42188C18.3594 3.33008 15.0293 0 10.9375 0C6.8457 0 3.51562 3.33008 3.51562 7.42188V10.9375H2.34375C1.0498 10.9375 0 11.9873 0 13.2812V22.6562C0 23.9502 1.0498 25 2.34375 25H19.5312C20.8252 25 21.875 23.9502 21.875 22.6562V13.2812C21.875 11.9873 20.8252 10.9375 19.5312 10.9375ZM14.4531 10.9375H7.42188V7.42188C7.42188 5.4834 8.99902 3.90625 10.9375 3.90625C12.876 3.90625 14.4531 5.4834 14.4531 7.42188V10.9375Z" fill="url(#paint0_linear_575_28)"/>
<defs>
<linearGradient id="paint0_linear_575_28" x1="10.9375" y1="0" x2="10.9375" y2="25" gradientUnits="userSpaceOnUse">
<stop stop-color="#7B27DD"/>
<stop offset="1" stop-color="#3606B2"/>
</linearGradient>
</defs>
</svg>
